<svg id="Layer_1" data-name="Layer 1" xmlns="http://www.w3.org/2000/svg" viewBox="0 0 66.77 66.77"><title>instagram</title><path d="M33.39,52.42h0a19,19,0,0,1-19-19h0a19,19,0,0,1,19-19h0a19,19,0,0,1,19,19h0A19,19,0,0,1,33.39,52.42Z" fill="none" stroke="#fff" stroke-miterlimit="10" stroke-width="1.5"/><path d="M33.39,24.83c2.78,0,3.11,0,4.21.06a6,6,0,0,1,1.94.36,3.24,3.24,0,0,1,1.2.78,3.28,3.28,0,0,1,.78,1.2,6,6,0,0,1,.36,1.94c0,1.1.06,1.43.06,4.22s0,3.11-.06,4.21a6,6,0,0,1-.36,1.94,3.45,3.45,0,0,1-2,2,6,6,0,0,1-1.94.36c-1.1,0-1.43.06-4.21.06s-3.12,0-4.22-.06a6,6,0,0,1-1.94-.36,3.28,3.28,0,0,1-1.2-.78,3.24,3.24,0,0,1-.78-1.2,6,6,0,0,1-.36-1.94c-.05-1.1-.06-1.43-.06-4.21s0-3.12.06-4.22a6,6,0,0,1,.36-1.94,3.45,3.45,0,0,1,2-2,6,6,0,0,1,1.94-.36c1.1-.05,1.43-.06,4.22-.06m0-1.88c-2.84,0-3.19,0-4.31.07a7.62,7.62,0,0,0-2.53.48,5.29,5.29,0,0,0-3.05,3.05A7.63,7.63,0,0,0,23,29.09C23,30.2,23,30.55,23,33.39s0,3.19.07,4.3a7.57,7.57,0,0,0,.48,2.53,5.29,5.29,0,0,0,3.05,3.05,7.59,7.59,0,0,0,2.53.49c1.12.05,1.47.06,4.31.06s3.19,0,4.3-.06a7.54,7.54,0,0,0,2.53-.49,5.29,5.29,0,0,0,3.05-3.05,7.54,7.54,0,0,0,.49-2.53c.05-1.11.06-1.47.06-4.3s0-3.19-.06-4.3a7.61,7.61,0,0,0-.49-2.54,5.29,5.29,0,0,0-3.05-3.05A7.57,7.57,0,0,0,37.69,23C36.58,23,36.22,23,33.39,23" fill="#fff"/><path d="M33.39,28a5.36,5.36,0,1,0,5.36,5.36A5.36,5.36,0,0,0,33.39,28m0,8.84a3.48,3.48,0,1,1,3.48-3.48,3.48,3.48,0,0,1-3.48,3.48" fill="#fff"/><path d="M40.21,27.82A1.26,1.26,0,1,1,39,26.57a1.25,1.25,0,0,1,1.25,1.25" fill="#fff"/></svg>