<svg id="Layer_1" data-name="Layer 1" xmlns="http://www.w3.org/2000/svg" viewBox="0 0 66.77 66.77"><title>vimeo</title><path d="M33.39,52.42h0a19,19,0,0,1-19-19h0a19,19,0,0,1,19-19h0a19,19,0,0,1,19,19h0A19,19,0,0,1,33.39,52.42Z" fill="none" stroke="#fff" stroke-miterlimit="10" stroke-width="1.5"/><path d="M41,24.05C38,24,36,25.64,35,29.12a4,4,0,0,1,1.6-.35c1.1,0,1.58.61,1.46,1.85a8.51,8.51,0,0,1-1.46,3.26C35.65,35.3,35,36,34.52,36s-1.12-1.1-1.6-3.3q-.26-1-.87-4.95-.58-3.69-3.11-3.45a7.23,7.23,0,0,0-3.2,1.94c-1,.94-2.08,1.88-3.15,2.81l1,1.31a6.73,6.73,0,0,1,1.69-1c.75,0,1.44,1.17,2.08,3.49.58,2.13,1.17,4.26,1.75,6.39q1.31,3.49,3.19,3.49,3,0,7.45-5.73,4.26-5.47,4.4-8.63Q44.36,24.15,41,24.05Z" fill="#fff"/></svg>